<svg id="Layer_1" data-name="Layer 1" xmlns="http://www.w3.org/2000/svg" viewBox="0 0 28.8 33.67"><defs><style>.cls-1{fill:#1d1d1b;}.cls-2{fill:#e30613;}</style></defs><title>NS Logo</title><path class="cls-1" d="M317.64,246.21a1.74,1.74,0,0,0,1.74-1.74V232.39a7,7,0,0,1,.16-1.43,3.89,3.89,0,0,1,.62-1.43,3.68,3.68,0,0,1,1.23-1.11,4.1,4.1,0,0,1,2.05-.45h13.1a5.47,5.47,0,0,1,2,.45,3.7,3.7,0,0,1,1.26,1.11,3.87,3.87,0,0,1,.61,1.43,7,7,0,0,1,.17,1.43v12.08a1.74,1.74,0,0,0,1.74,1.74h0a1.74,1.74,0,0,0,1.74-1.74V232.39a9.33,9.33,0,0,0-.44-2.75,8.59,8.59,0,0,0-1.25-2.56,6.82,6.82,0,0,0-2-1.87,5,5,0,0,0-2.63-.73H322.57a5.43,5.43,0,0,0-2.79.73,7.26,7.26,0,0,0-2.11,1.87,8.29,8.29,0,0,0-1.32,2.56,9,9,0,0,0-.45,2.75v12.08a1.74,1.74,0,0,0,1.74,1.74Z" transform="translate(-315.4 -224.48)"/><path class="cls-2" d="M334.08,239.24a1.28,1.28,0,0,1,1.26,1.3,1.12,1.12,0,0,1-.37.86,1.25,1.25,0,0,1-.89.36H323.51a1.64,1.64,0,0,0-1.64,1.64,1.62,1.62,0,0,0,1.64,1.63h10.43a4.6,4.6,0,0,0,1.79-.34,4.35,4.35,0,0,0,1.45-.95,4.73,4.73,0,0,0,1-1.43,4.54,4.54,0,0,0,.35-1.77,4.64,4.64,0,0,0-.35-1.79,4.54,4.54,0,0,0-2.43-2.42,4.44,4.44,0,0,0-1.79-.36h-8.62a1.29,1.29,0,0,1-.91-.37,1.2,1.2,0,0,1-.39-.89,1.17,1.17,0,0,1,.39-.9,1.33,1.33,0,0,1,.91-.36h10.53a1.62,1.62,0,0,0,1.64-1.63,1.64,1.64,0,0,0-1.64-1.64H325.39a4.39,4.39,0,0,0-1.78.36,4.59,4.59,0,0,0-2.4,2.4,4.38,4.38,0,0,0-.36,1.77,4.31,4.31,0,0,0,.36,1.77,4.47,4.47,0,0,0,1,1.43,4.53,4.53,0,0,0,1.43,1,4.39,4.39,0,0,0,1.78.36Z" transform="translate(-315.4 -224.48)"/><path class="cls-1" d="M316.21,251.83a.38.38,0,0,1-.29-.13.42.42,0,0,1-.09-.16.55.55,0,0,1-.05-.17.76.76,0,0,1,0-.14c0-.18,0-.36,0-.54s0-.36.05-.54,0-.34,0-.51,0-.34,0-.51a1.64,1.64,0,0,0,0-.22,1.24,1.24,0,0,1,0-.33v-.17l.22-.12.25,0h.2l.09.2c0,.13.07.29.12.47s.11.37.18.55.15.37.24.56a2.55,2.55,0,0,0,.31.47,1.49,1.49,0,0,0,.36.31.77.77,0,0,0,.4.1.54.54,0,0,0,.2,0,.25.25,0,0,0,.13-.09.48.48,0,0,0,.08-.16.88.88,0,0,0,0-.24.73.73,0,0,0-.06-.3l-.18-.35a3,3,0,0,1-.19-.36,1,1,0,0,1-.12-.49.46.46,0,0,1,0-.21.32.32,0,0,1,.33-.2.48.48,0,0,1,.36.18,1.05,1.05,0,0,1,.21.31,2.69,2.69,0,0,1,.18.38c.05.13.09.27.13.4a3.42,3.42,0,0,1,.09.38,1.38,1.38,0,0,1,0,.31,1.32,1.32,0,0,1-.1.53,1.21,1.21,0,0,1-.27.43,1.3,1.3,0,0,1-.43.29,1.45,1.45,0,0,1-1.12,0,1.63,1.63,0,0,1-.44-.3,2.3,2.3,0,0,1-.32-.38c-.07-.1-.14-.19-.19-.28s0,.09,0,.14a1.64,1.64,0,0,1,0,.38.76.76,0,0,1,0,.14l0,.16a.78.78,0,0,1-.11.2A.41.41,0,0,1,316.21,251.83Z" transform="translate(-315.4 -224.48)"/><path class="cls-1" d="M325,251.81a.32.32,0,0,1-.31-.17.36.36,0,0,1-.05-.21,1,1,0,0,1,0-.24,1.55,1.55,0,0,1,0-.21c0-.06,0-.13,0-.19s0-.1,0-.16,0-.21,0-.32a.19.19,0,0,0,0-.08h-.14l-.35,0-.33,0a1.56,1.56,0,0,0-.31,0H323a2.47,2.47,0,0,0,.08.62l.05.32a1.47,1.47,0,0,1,0,.36v.11l-.08.13a.36.36,0,0,1-.41.1.46.46,0,0,1-.26-.24,1.21,1.21,0,0,1-.11-.31,3.18,3.18,0,0,1-.06-.37c0-.12,0-.26,0-.39a2.8,2.8,0,0,1,0-.29l-.05-.06-.14-.21,0-.1a.33.33,0,0,1,.11-.26l.06-.07c0-.15,0-.32,0-.49a4.71,4.71,0,0,1,.05-.54,4.28,4.28,0,0,1,.12-.54,1.74,1.74,0,0,1,.25-.49,1.26,1.26,0,0,1,.43-.36,1.36,1.36,0,0,1,1.21,0,1.51,1.51,0,0,1,.42.38,2.57,2.57,0,0,1,.31.51,4.1,4.1,0,0,1,.2.59c.06.21.1.41.14.62s.06.4.08.58,0,.36,0,.51,0,.28,0,.38v.2c0,.06,0,.12,0,.18a1.11,1.11,0,0,0,0,.17c0,.07,0,.15,0,.24l0,.1a.81.81,0,0,1-.16.16A.51.51,0,0,1,325,251.81Zm-2-2.44,1.63.09v0a2.24,2.24,0,0,0,0-.31,3.24,3.24,0,0,0-.09-.4,2,2,0,0,0-.14-.41,2,2,0,0,0-.2-.32.79.79,0,0,0-.24-.21.49.49,0,0,0-.51,0,.62.62,0,0,0-.19.23,1.78,1.78,0,0,0-.13.37,3.4,3.4,0,0,0-.07.46c0,.15,0,.3,0,.43A.45.45,0,0,0,323,249.37Z" transform="translate(-315.4 -224.48)"/><path class="cls-1" d="M329.88,251.81l-.46,0a.6.6,0,0,1-.34-.26h0a.7.7,0,0,1-.11-.38.79.79,0,0,1,.13-.41c.06-.09.13-.17.2-.26a1.25,1.25,0,0,0,.15-.19l-.2,0a1.58,1.58,0,0,1-.38,0h-.25v-.25a1,1,0,0,1,0-.24.44.44,0,0,1,.25-.28,2.79,2.79,0,0,1,.42-.1l.29,0,.22,0,.08,0a.27.27,0,0,0,.07-.12,1.1,1.1,0,0,0,.06-.28.34.34,0,0,0-.05-.17.71.71,0,0,0-.18-.16,1.06,1.06,0,0,0-.25-.09,1,1,0,0,0-.48,0l-.2.07-.21.08a.86.86,0,0,1-.27,0h-.11l-.17-.17,0-.13a.57.57,0,0,1,.19-.46,1.2,1.2,0,0,1,.32-.16,1.21,1.21,0,0,1,.33-.07h.24a2.59,2.59,0,0,1,.56,0,1.45,1.45,0,0,1,.53.19,1.12,1.12,0,0,1,.4.41,1.26,1.26,0,0,1,.15.64.78.78,0,0,1,0,.22.65.65,0,0,0,0,.13h.11l.21,0a.93.93,0,0,1,.22.08.35.35,0,0,1,.19.31l0,.11,0,.08-.16.1-.13.06-.15.06-.17,0h-.07l-.1,0a.29.29,0,0,0-.19.06.91.91,0,0,0-.23.21,3.45,3.45,0,0,0-.2.32c0,.07-.07.14-.11.2l.19,0,.38-.09c.14,0,.27-.07.41-.09a1.61,1.61,0,0,1,.44,0,.33.33,0,0,1,.32.18.62.62,0,0,1,0,.41.46.46,0,0,1-.24.21,7.25,7.25,0,0,1-.76.22A4.23,4.23,0,0,1,329.88,251.81Z" transform="translate(-315.4 -224.48)"/><path class="cls-1" d="M337.13,251.81a.33.33,0,0,1-.31-.16h0a.46.46,0,0,1-.05-.21,1.94,1.94,0,0,1,0-.24,1.55,1.55,0,0,0,0-.21,1.06,1.06,0,0,0,0-.19.78.78,0,0,0,0-.16c0-.1,0-.21,0-.32v-.08h-.14l-.35,0-.34,0a1.51,1.51,0,0,0-.3,0h-.52a1,1,0,0,0,0,.31,2.87,2.87,0,0,0,0,.31l.06.32a2.19,2.19,0,0,1,0,.36v.11l-.08.13a.38.38,0,0,1-.41.1.45.45,0,0,1-.25-.24,1,1,0,0,1-.11-.31,3.06,3.06,0,0,1-.07-.37c0-.12,0-.26,0-.39a2.71,2.71,0,0,1,0-.29l-.21-.3v-.07a.33.33,0,0,1,.11-.26l.06-.07c0-.15,0-.32,0-.49s0-.37.05-.54a3,3,0,0,1,.13-.54,1.72,1.72,0,0,1,.24-.49,1.36,1.36,0,0,1,.43-.36,1.38,1.38,0,0,1,1.22,0,1.65,1.65,0,0,1,.42.38,2.14,2.14,0,0,1,.3.51,5.89,5.89,0,0,1,.21.59c.05.21.1.41.14.62s.06.4.08.58,0,.36,0,.51,0,.28,0,.38v.2a1.09,1.09,0,0,1,0,.18v.17c0,.07,0,.15,0,.24l0,.1-.17.17A.54.54,0,0,1,337.13,251.81Zm-2-2.44,1.62.09a.08.08,0,0,1,0,0c0-.07,0-.18,0-.31a3.24,3.24,0,0,0-.09-.4,2.74,2.74,0,0,0-.15-.4,1.08,1.08,0,0,0-.2-.33.79.79,0,0,0-.24-.21.49.49,0,0,0-.51,0,.71.71,0,0,0-.18.23,1.35,1.35,0,0,0-.13.37,3.4,3.4,0,0,0-.08.46c0,.15,0,.3,0,.43Z" transform="translate(-315.4 -224.48)"/><path class="cls-1" d="M343.45,252.05l-.16,0a1.62,1.62,0,0,1-.39-.18c-.12-.08-.26-.18-.41-.3l-.42-.37-.11-.1v0a1.32,1.32,0,0,1,0,.33.44.44,0,0,1-.16.27l0,.06-.35,0-.11-.21-.09-.25c0-.1-.06-.23-.1-.37s-.07-.29-.1-.45L341,250a4.36,4.36,0,0,1-.06-.49,3.49,3.49,0,0,1,0-.44,1.31,1.31,0,0,1,0-.37l0-.08.06,0a.28.28,0,0,0-.11.08.28.28,0,0,0-.05.18v.25h-.25a.4.4,0,0,1-.25-.09l-.12-.14-.07-.15a.67.67,0,0,1,0-.18.54.54,0,0,1,.06-.25.9.9,0,0,1,.14-.2l.16-.13a.75.75,0,0,1,.17-.1l.06,0,.33-.06.27,0,.27,0a3.94,3.94,0,0,1,.66,0,3,3,0,0,1,.39.08,2.5,2.5,0,0,1,.38.15,1.16,1.16,0,0,1,.34.24,1,1,0,0,1,.26.33,1.14,1.14,0,0,1,.1.45.68.68,0,0,1-.16.44,1.11,1.11,0,0,1-.35.28,1.94,1.94,0,0,1-.42.17l-.42.11-.31.07.31.33a6.05,6.05,0,0,0,.49.44c.15.11.29.21.41.28l.33.2a1,1,0,0,1,.23.19l.06.08v.14a.32.32,0,0,1-.14.21A.39.39,0,0,1,343.45,252.05Zm-1.8-3,0,.17h0l.32-.05.35-.09a1.89,1.89,0,0,0,.31-.1,1.28,1.28,0,0,0,.17-.1,1.24,1.24,0,0,0-.19-.16.87.87,0,0,0-.27-.14,1.86,1.86,0,0,0-.34-.06h-.64a.46.46,0,0,1,.17.17,1.29,1.29,0,0,1,.07.21A.71.71,0,0,1,341.65,249.08Z" transform="translate(-315.4 -224.48)"/><path class="cls-1" d="M317.68,258h-.33a3.24,3.24,0,0,1-.62-.12,2.7,2.7,0,0,1-.58-.23,2,2,0,0,1-.46-.36h0a1.19,1.19,0,0,1-.29-.51.91.91,0,0,1,0-.27.7.7,0,0,1,.09-.17.55.55,0,0,1,.17-.17.44.44,0,0,1,.25-.08h.25v.25a.87.87,0,0,0,.1.44.56.56,0,0,0,.25.23,1.5,1.5,0,0,0,.44.13,5.79,5.79,0,0,0,.61.05h.28l.31,0a.41.41,0,0,0,.19-.08,1,1,0,0,0,0-.18.19.19,0,0,0-.09-.09l-1.67-.91a1.19,1.19,0,0,1-.23-.16,1,1,0,0,1-.18-.22,1.15,1.15,0,0,1-.12-.25.9.9,0,0,1,0-.28.81.81,0,0,1,.17-.52,1.29,1.29,0,0,1,.37-.28A1.5,1.5,0,0,1,317,254a1.67,1.67,0,0,1,.64,0l.29,0,.3.08a1.77,1.77,0,0,1,.31.15,1,1,0,0,1,.24.22.65.65,0,0,1,.12.37V255l-.13.07a.47.47,0,0,1-.33.06.78.78,0,0,1-.24-.09l-.19-.11-.17-.11a.44.44,0,0,0-.16-.06.27.27,0,0,0-.13,0l-.28,0a1.35,1.35,0,0,0-.28,0,.56.56,0,0,0-.19.09.16.16,0,0,0,0,.16.93.93,0,0,0,.23.19l.38.21.46.21c.16.08.32.15.47.24a2,2,0,0,1,.43.28,1.33,1.33,0,0,1,.31.37.73.73,0,0,1,.1.52.83.83,0,0,1-.25.49,1.13,1.13,0,0,1-.46.29,2.31,2.31,0,0,1-.56.12Z" transform="translate(-315.4 -224.48)"/><path class="cls-1" d="M320.31,257.92a.37.37,0,0,1-.35-.26,1,1,0,0,1-.1-.35,2.48,2.48,0,0,1,0-.41c0-.14,0-.28,0-.4s0-.24,0-.34V256c0-.1,0-.22,0-.34l-.06-.39c0-.14,0-.28-.05-.41a2.91,2.91,0,0,1,0-.4l0-.12,0-.1,0,0,.09-.08a.36.36,0,0,1,.46.08.45.45,0,0,1,.08.17,1.3,1.3,0,0,1,0,.13,1.6,1.6,0,0,1,.05.29l0,.23h0c.08-.1.16-.21.25-.31a2.93,2.93,0,0,1,.29-.31,2.13,2.13,0,0,1,.32-.23.63.63,0,0,1,.4-.1h.1l.06.07a.32.32,0,0,1,.08.36.85.85,0,0,1-.1.18l-.15.17-.14.15-.26.29-.27.29a2.09,2.09,0,0,0-.24.28l-.08.09a2.39,2.39,0,0,0,.22.23,4.23,4.23,0,0,0,.4.34,4.15,4.15,0,0,0,.43.3l.47.31h0a.31.31,0,0,1,.15.09.52.52,0,0,1,.13.17.5.5,0,0,1,0,.23.38.38,0,0,1-.14.26.4.4,0,0,1-.29.07h0a.85.85,0,0,1-.27-.09,1.75,1.75,0,0,0-.26-.18l-.62-.42-.33-.24,0,0c0,.06,0,.11,0,.16a1.68,1.68,0,0,1,0,.29.78.78,0,0,1-.05.28A.36.36,0,0,1,320.31,257.92Z" transform="translate(-315.4 -224.48)"/><path class="cls-1" d="M326.13,258.15a.44.44,0,0,1-.15,0,1.46,1.46,0,0,1-.39-.18,3.4,3.4,0,0,1-.41-.31l-.43-.36-.1-.1v0a1,1,0,0,1,0,.33.37.37,0,0,1-.15.26l0,.06-.35,0-.11-.21a1.07,1.07,0,0,1-.09-.26c0-.1-.07-.22-.1-.36s-.07-.3-.1-.46-.06-.32-.09-.49-.05-.33-.07-.48a3.47,3.47,0,0,1,0-.44,1.43,1.43,0,0,1,0-.38l0-.08.06,0a.25.25,0,0,0-.12.08.34.34,0,0,0,0,.18v.25h-.25a.35.35,0,0,1-.25-.1.41.41,0,0,1-.12-.14,1,1,0,0,1-.07-.15.61.61,0,0,1,0-.17.58.58,0,0,1,.06-.26.62.62,0,0,1,.14-.19l.15-.13.17-.11.07,0,.32-.05.28,0,.27,0a3.82,3.82,0,0,1,.66,0l.38.09a1.32,1.32,0,0,1,.39.15,1.56,1.56,0,0,1,.34.23,1.23,1.23,0,0,1,.26.34,1.06,1.06,0,0,1,.09.45.71.71,0,0,1-.15.44,1.23,1.23,0,0,1-.35.28,4.08,4.08,0,0,1-.42.17l-.42.11-.31.07q.15.18.3.33a5.82,5.82,0,0,0,.5.43c.15.12.29.21.41.29l.33.19a1.18,1.18,0,0,1,.22.19l.06.09v.13a.35.35,0,0,1-.14.22A.39.39,0,0,1,326.13,258.15Zm-1.79-3,0,.12-.13.07.16,0,.32-.06.35-.08a2.09,2.09,0,0,0,.3-.11.55.55,0,0,0,.17-.1,1.29,1.29,0,0,0-.18-.16,1,1,0,0,0-.28-.13,1.86,1.86,0,0,0-.34-.06l-.41,0h-.23a.42.42,0,0,1,.17.18.48.48,0,0,1,.07.21A.84.84,0,0,1,324.34,255.19Z" transform="translate(-315.4 -224.48)"/><path class="cls-1" d="M328.39,258a.35.35,0,0,1-.23-.07.47.47,0,0,1-.16-.18l0-.11v-.24a3.45,3.45,0,0,1,0-.52c0-.14,0-.27.07-.4s.07-.25.11-.39.06-.19.1-.29l-.22-.12-.37-.25a2.64,2.64,0,0,1-.38-.37,1.64,1.64,0,0,1-.28-.48,1.29,1.29,0,0,1-.09-.62l0-.23.55,0,.09.17.1.22a1.74,1.74,0,0,0,.15.26,2.56,2.56,0,0,0,.2.26l.22.22a1,1,0,0,0,.22.14h0l.06-.14a2,2,0,0,1,.12-.25l0-.08,0-.13a1.06,1.06,0,0,1,0-.2s0-.13.16-.22a.7.7,0,0,1,.19-.06.5.5,0,0,1,.21,0,.32.32,0,0,1,.2.3,2.76,2.76,0,0,1-.07.65,4.75,4.75,0,0,1-.18.57c-.07.18-.14.36-.22.54a5.17,5.17,0,0,0-.18.51,3.13,3.13,0,0,0-.12.53,2.21,2.21,0,0,0,0,.57v.08l0,.08a.37.37,0,0,1-.14.16A.36.36,0,0,1,328.39,258Z" transform="translate(-315.4 -224.48)"/><path class="cls-1" d="M331.81,257.91h-.08l-.12,0-.05-.11a1.33,1.33,0,0,1-.16-.43,3.41,3.41,0,0,1-.09-.48,4,4,0,0,1-.06-.47c0-.13,0-.24-.05-.31v-1a.39.39,0,0,1,.12-.28h-.55l-.06,0-.08.13a1.28,1.28,0,0,1-.1.17.38.38,0,0,1-.29.16l-.14,0-.09,0-.05-.11a.53.53,0,0,1,0-.11,1.39,1.39,0,0,1,0-.15v-.25a.39.39,0,0,1,.14-.3.56.56,0,0,1,.23-.14l.24-.08.23-.06.2,0h.15a4.11,4.11,0,0,1,.47,0,3.7,3.7,0,0,1,.55.09,3.83,3.83,0,0,1,.58.16,3.76,3.76,0,0,1,.53.27,1.63,1.63,0,0,1,.41.42,1.08,1.08,0,0,1,.17.6.71.71,0,0,1-.11.48,1.19,1.19,0,0,1-.32.36,2.22,2.22,0,0,1-.42.25,2.69,2.69,0,0,1-.45.16,1.84,1.84,0,0,1-.37.07.68.68,0,0,0,0,.14,3,3,0,0,1,0,.43v.1a.75.75,0,0,1-.05.16.38.38,0,0,1-.11.16A.35.35,0,0,1,331.81,257.91Zm.26-2h.21a1.24,1.24,0,0,0,.23,0,1,1,0,0,0,.25-.11.69.69,0,0,0,.18-.16.25.25,0,0,0,.05-.15.22.22,0,0,0-.06-.15,1,1,0,0,0-.24-.19,2.56,2.56,0,0,0-.37-.17,2.08,2.08,0,0,0-.41-.11h0a3.31,3.31,0,0,1,0,.33l0,.32a1.43,1.43,0,0,0,0,.29s0,.08,0,.12Z" transform="translate(-315.4 -224.48)"/><path class="cls-1" d="M334.65,257.92a.37.37,0,0,1-.28-.13.47.47,0,0,1-.1-.16.53.53,0,0,1,0-.18.66.66,0,0,1,0-.13c0-.18,0-.37,0-.55s0-.36,0-.53,0-.34,0-.51,0-.34,0-.51a.91.91,0,0,0,0-.23,1.66,1.66,0,0,1,0-.33v-.16l.36-.16h.31l.1.19c0,.14.07.29.12.47a4,4,0,0,0,.17.56,5.38,5.38,0,0,0,.24.55,2.25,2.25,0,0,0,.31.47,1.29,1.29,0,0,0,.36.31.68.68,0,0,0,.4.1.62.62,0,0,0,.21,0l.13-.1a.34.34,0,0,0,.07-.16.59.59,0,0,0,0-.23.82.82,0,0,0-.07-.31,2.79,2.79,0,0,0-.18-.34c-.07-.12-.13-.24-.19-.36a1,1,0,0,1-.11-.49.66.66,0,0,1,0-.21.31.31,0,0,1,.33-.21.48.48,0,0,1,.36.18,1.89,1.89,0,0,1,.22.31c.06.12.11.24.17.38a3.24,3.24,0,0,1,.13.41c0,.13.07.26.1.37a2.39,2.39,0,0,1,0,.31,1.51,1.51,0,0,1-.09.53,1.33,1.33,0,0,1-.28.44,1.15,1.15,0,0,1-.43.28,1.45,1.45,0,0,1-1.12,0,1.67,1.67,0,0,1-.44-.31,2.83,2.83,0,0,1-.32-.37l-.19-.29,0,.15a2.33,2.33,0,0,1,0,.38.93.93,0,0,1,0,.14.5.5,0,0,1,0,.16.56.56,0,0,1-.11.2A.41.41,0,0,1,334.65,257.92Z" transform="translate(-315.4 -224.48)"/><path class="cls-1" d="M339.74,258a.35.35,0,0,1-.23-.07.66.66,0,0,1-.16-.17l0-.12v-.24a3.7,3.7,0,0,1,0-.53c0-.13,0-.26.07-.38s.07-.26.11-.4.06-.19.1-.29l-.22-.12-.36-.25a2.26,2.26,0,0,1-.39-.37,1.64,1.64,0,0,1-.28-.48,1.29,1.29,0,0,1-.09-.62l0-.23.55,0,.1.17a1.28,1.28,0,0,0,.09.22,1.74,1.74,0,0,0,.15.26,1.64,1.64,0,0,0,.2.26l.22.22a1,1,0,0,0,.22.14h0l.18-.39,0-.08,0-.13a1.06,1.06,0,0,1,0-.2s0-.14.17-.22a.48.48,0,0,1,.18-.06.5.5,0,0,1,.21,0,.31.31,0,0,1,.2.3,2.76,2.76,0,0,1-.07.65,4.75,4.75,0,0,1-.18.57c-.07.18-.14.36-.22.54a5.17,5.17,0,0,0-.18.51,3.37,3.37,0,0,0-.12.53,2.21,2.21,0,0,0,0,.57v.08l0,.08a.37.37,0,0,1-.14.16A.36.36,0,0,1,339.74,258Z" transform="translate(-315.4 -224.48)"/><path class="cls-1" d="M341.92,257.92a.37.37,0,0,1-.35-.26,1,1,0,0,1-.1-.35,2.48,2.48,0,0,1,0-.41c0-.14,0-.28,0-.4s0-.24,0-.34V256c0-.1,0-.22,0-.34l-.06-.39c0-.14,0-.28-.05-.41a2.91,2.91,0,0,1,0-.4l0-.12s0-.07.05-.1l0,0,.09-.08a.36.36,0,0,1,.46.08.45.45,0,0,1,.08.17,1.3,1.3,0,0,1,0,.13,1.6,1.6,0,0,1,.05.29l0,.23h0c.08-.1.16-.21.25-.31a2.93,2.93,0,0,1,.29-.31,2.13,2.13,0,0,1,.32-.23.63.63,0,0,1,.4-.1h.1l.07.07a.34.34,0,0,1,.07.36.54.54,0,0,1-.1.18l-.15.17-.15.15c-.06.08-.15.18-.25.29l-.27.29a2.09,2.09,0,0,0-.24.28l-.08.09a2.39,2.39,0,0,0,.22.23,4.23,4.23,0,0,0,.4.34,4.15,4.15,0,0,0,.43.3l.47.31h0a.31.31,0,0,1,.15.09.52.52,0,0,1,.13.17.5.5,0,0,1,.05.23.38.38,0,0,1-.14.26.4.4,0,0,1-.29.07h0a.85.85,0,0,1-.27-.09,1.75,1.75,0,0,0-.26-.18l-.62-.42-.33-.24,0,0a1,1,0,0,1,0,.16,1.68,1.68,0,0,1,0,.29.78.78,0,0,1-.05.28A.36.36,0,0,1,341.92,257.92Z" transform="translate(-315.4 -224.48)"/><path class="cls-1" d="M316.37,249.51" transform="translate(-315.4 -224.48)"/></svg>